<?xml version="1.0" encoding="UTF-8"?>
<svg id="Capa_2" data-name="Capa 2" xmlns="http://www.w3.org/2000/svg" viewBox="0 0 188 166.93">
  <defs>
    
  </defs>
  <g id="Capa_1-2" data-name="Capa 1">
    <g>
      <g>
        <g>
          <g>
            <polygon class="cls-4" points="126.97 38.09 120.37 34.29 94 49.52 87.41 45.71 107.2 34.28 100.59 30.48 80.81 41.9 74.22 38.09 100.59 22.87 94 19.06 61.03 38.09 94.01 57.12 126.97 38.09"></polygon>
            <g class="cls-5">
              <polygon class="cls-4" points="126.97 68.55 120.37 64.74 94 79.96 87.41 76.16 107.19 64.74 100.59 60.93 80.81 72.35 74.22 68.54 87.41 60.93 80.81 57.12 61.03 68.54 94 87.58 126.97 68.55"></polygon>
            </g>
          </g>
          <g>
            <path class="cls-1" d="m13.13,122.07c-.15,0-.27-.05-.37-.15s-.15-.23-.15-.37v-14.32c0-.16.05-.29.15-.4.1-.1.23-.15.37-.15h9.68c.16,0,.29.05.4.15.1.1.15.24.15.4v1.45c0,.15-.05.27-.15.37s-.23.15-.4.15h-7.24v3.89h6.75c.16,0,.29.05.4.14.1.1.15.22.15.38v1.36c0,.16-.05.29-.15.38-.1.1-.23.14-.4.14h-6.75v4.03h7.41c.16,0,.29.05.4.15s.15.24.15.4v1.45c0,.15-.05.27-.15.37s-.23.15-.4.15h-9.86Z"></path>
            <path class="cls-1" d="m26.81,122.07c-.15,0-.27-.05-.37-.15-.1-.1-.15-.23-.15-.37v-14.32c0-.16.05-.29.15-.4s.23-.15.37-.15h5.37c1.48,0,2.7.23,3.66.68.96.46,1.69,1.13,2.18,2.02.49.89.74,1.99.76,3.28.03.65.04,1.22.04,1.72s-.01,1.06-.04,1.69c-.03,1.36-.28,2.49-.75,3.38-.47.89-1.18,1.55-2.12,1.98s-2.15.65-3.62.65h-5.48Zm2.53-2.53h2.84c.82,0,1.49-.12,2-.35.51-.23.89-.61,1.13-1.13.24-.52.37-1.21.38-2.06.01-.44.03-.83.03-1.16,0-.33,0-.66,0-.99,0-.33-.02-.71-.03-1.13-.03-1.2-.33-2.09-.9-2.66-.57-.57-1.48-.86-2.73-.86h-2.73v10.34Z"></path>
            <path class="cls-1" d="m47.89,122.29c-1.28,0-2.38-.22-3.32-.65s-1.67-1.1-2.18-2c-.51-.9-.77-2.06-.77-3.46v-8.95c0-.16.05-.29.15-.4.1-.1.23-.15.37-.15h2c.16,0,.29.05.38.15.1.1.14.24.14.4v8.95c0,1.2.29,2.09.86,2.67.57.58,1.36.87,2.35.87s1.78-.29,2.34-.87.85-1.47.85-2.67v-8.95c0-.16.05-.29.15-.4.1-.1.23-.15.4-.15h1.98c.16,0,.29.05.38.15.1.1.14.24.14.4v8.95c0,1.41-.25,2.56-.76,3.46-.51.9-1.22,1.57-2.16,2-.93.43-2.04.65-3.33.65Z"></path>
            <path class="cls-1" d="m63.37,122.29c-1.36,0-2.52-.24-3.46-.72-.95-.48-1.67-1.16-2.17-2.05-.5-.89-.78-1.95-.84-3.2-.01-.6-.02-1.25-.02-1.94s0-1.35.02-1.98c.06-1.23.34-2.29.85-3.19.51-.89,1.23-1.58,2.18-2.06s2.09-.72,3.44-.72c1,0,1.89.13,2.68.4s1.47.63,2.02,1.09c.56.46.99,1,1.3,1.62.31.62.47,1.28.48,2,.01.13-.03.24-.12.33s-.21.13-.34.13h-2.09c-.16,0-.29-.04-.4-.12-.1-.08-.18-.22-.22-.41-.23-.97-.64-1.63-1.21-1.98-.57-.35-1.28-.53-2.13-.53-.98,0-1.77.28-2.35.83-.59.55-.9,1.46-.95,2.72-.04,1.2-.04,2.43,0,3.7s.36,2.17.95,2.72c.59.55,1.37.83,2.35.83.85,0,1.57-.18,2.14-.54.58-.36.98-1.02,1.2-1.97.04-.21.12-.34.22-.42.1-.07.23-.11.4-.11h2.09c.13,0,.25.04.34.13s.14.2.12.33c-.01.72-.18,1.39-.48,2-.31.62-.74,1.16-1.3,1.62-.56.46-1.23.83-2.02,1.09s-1.69.4-2.68.4Z"></path>
            <path class="cls-1" d="m71.36,122.07c-.12,0-.22-.04-.32-.13-.1-.09-.14-.2-.14-.33,0-.06.01-.12.04-.2l5.3-14.19c.04-.15.13-.28.25-.38.12-.11.3-.17.52-.17h2.4c.22,0,.39.05.51.17.12.11.21.24.26.38l5.3,14.19c.01.07.02.14.02.2,0,.13-.04.24-.13.33-.09.09-.19.13-.31.13h-1.91c-.21,0-.36-.05-.45-.14-.09-.1-.16-.19-.19-.28l-1.03-2.68h-6.53l-1.03,2.68c-.03.09-.09.18-.19.28-.1.1-.25.14-.45.14h-1.91Zm4.36-5.63h4.99l-2.51-6.8-2.49,6.8Z"></path>
            <path class="cls-1" d="m92.55,122.07c-.15,0-.27-.05-.37-.15-.1-.1-.15-.23-.15-.37v-14.32c0-.16.05-.29.15-.4s.23-.15.37-.15h9.68c.16,0,.29.05.4.15.1.1.15.24.15.4v1.45c0,.15-.05.27-.15.37s-.23.15-.4.15h-7.24v3.89h6.75c.16,0,.29.05.4.14.1.1.15.22.15.38v1.36c0,.16-.05.29-.15.38-.1.1-.24.14-.4.14h-6.75v4.03h7.41c.16,0,.29.05.4.15.1.1.15.24.15.4v1.45c0,.15-.05.27-.15.37-.1.1-.24.15-.4.15h-9.86Z"></path>
            <path class="cls-1" d="m106.23,122.07c-.15,0-.27-.05-.37-.15-.1-.1-.15-.23-.15-.37v-14.32c0-.16.05-.29.15-.4s.23-.15.37-.15h5.37c1.48,0,2.7.23,3.66.68.96.46,1.69,1.13,2.18,2.02.49.89.74,1.99.76,3.28.03.65.04,1.22.04,1.72s-.01,1.06-.04,1.69c-.03,1.36-.28,2.49-.75,3.38-.47.89-1.18,1.55-2.12,1.98s-2.15.65-3.62.65h-5.48Zm2.53-2.53h2.84c.82,0,1.49-.12,2-.35.51-.23.89-.61,1.13-1.13.24-.52.37-1.21.38-2.06.01-.44.03-.83.03-1.16,0-.33,0-.66,0-.99,0-.33-.02-.71-.03-1.13-.03-1.2-.33-2.09-.9-2.66-.57-.57-1.48-.86-2.73-.86h-2.73v10.34Z"></path>
            <path class="cls-1" d="m124.8,122.07c-.15,0-.27-.05-.37-.15s-.15-.23-.15-.37v-12.17h-4.07c-.15,0-.27-.05-.37-.15s-.15-.23-.15-.37v-1.63c0-.16.05-.29.15-.4.1-.1.23-.15.37-.15h11.22c.16,0,.29.05.4.15.1.1.15.24.15.4v1.63c0,.15-.05.27-.15.37s-.24.15-.4.15h-4.05v12.17c0,.15-.05.27-.15.37s-.23.15-.4.15h-2.02Z"></path>
            <path class="cls-1" d="m134.72,122.07c-.15,0-.27-.05-.37-.15-.1-.1-.15-.23-.15-.37v-14.32c0-.16.05-.29.15-.4s.23-.15.37-.15h9.68c.16,0,.29.05.4.15.1.1.15.24.15.4v1.45c0,.15-.05.27-.15.37s-.23.15-.4.15h-7.24v3.89h6.75c.16,0,.29.05.4.14.1.1.15.22.15.38v1.36c0,.16-.05.29-.15.38-.1.1-.24.14-.4.14h-6.75v4.03h7.41c.16,0,.29.05.4.15.1.1.15.24.15.4v1.45c0,.15-.05.27-.15.37-.1.1-.24.15-.4.15h-9.86Z"></path>
            <path class="cls-1" d="m153.68,122.29c-1.36,0-2.52-.24-3.46-.72-.95-.48-1.67-1.16-2.17-2.05-.5-.89-.78-1.95-.84-3.2-.01-.6-.02-1.25-.02-1.94s0-1.35.02-1.98c.06-1.23.34-2.29.85-3.19.51-.89,1.23-1.58,2.18-2.06s2.09-.72,3.44-.72c1,0,1.89.13,2.68.4s1.47.63,2.02,1.09c.56.46.99,1,1.3,1.62.31.62.47,1.28.48,2,.01.13-.03.24-.12.33s-.21.13-.34.13h-2.09c-.16,0-.29-.04-.4-.12-.1-.08-.18-.22-.22-.41-.23-.97-.64-1.63-1.21-1.98-.57-.35-1.28-.53-2.13-.53-.98,0-1.77.28-2.35.83-.59.55-.9,1.46-.95,2.72-.04,1.2-.04,2.43,0,3.7s.36,2.17.95,2.72c.59.55,1.37.83,2.35.83.85,0,1.57-.18,2.14-.54.58-.36.98-1.02,1.2-1.97.04-.21.12-.34.22-.42.1-.07.23-.11.4-.11h2.09c.13,0,.25.04.34.13s.14.2.12.33c-.01.72-.18,1.39-.48,2-.31.62-.74,1.16-1.3,1.62-.56.46-1.23.83-2.02,1.09s-1.69.4-2.68.4Z"></path>
            <path class="cls-1" d="m163.32,122.07c-.15,0-.27-.05-.37-.14-.1-.1-.15-.22-.15-.38v-14.32c0-.16.05-.29.15-.4s.23-.15.37-.15h2c.16,0,.29.05.38.15.09.1.14.24.14.4v5.68h6.49v-5.68c0-.16.05-.29.15-.4.1-.1.23-.15.37-.15h1.98c.16,0,.29.05.4.15.1.1.15.24.15.4v14.32c0,.15-.05.27-.15.37s-.24.15-.4.15h-1.98c-.15,0-.27-.05-.37-.15s-.15-.23-.15-.37v-5.9h-6.49v5.9c0,.15-.05.27-.14.37-.1.1-.22.15-.38.15h-2Z"></path>
            <path class="cls-1" d="m73.21,144.27c-1.19,0-2.19-.22-3.01-.66-.82-.44-1.45-1.06-1.88-1.86-.43-.8-.68-1.74-.73-2.82-.01-.59-.02-1.21-.02-1.87s0-1.29.02-1.89c.05-1.08.3-2.02.73-2.81.43-.79,1.06-1.41,1.89-1.84.83-.43,1.83-.65,3-.65.93,0,1.75.13,2.44.4s1.26.6,1.71,1.01c.45.41.78.83,1,1.27.22.44.34.83.35,1.16.01.12-.02.22-.1.29s-.19.11-.32.11h-1.18c-.13,0-.23-.03-.29-.08-.06-.05-.12-.15-.17-.28-.12-.35-.32-.69-.59-1.02-.27-.33-.64-.61-1.1-.83s-1.04-.33-1.75-.33c-1.07,0-1.92.29-2.57.86-.65.57-1,1.52-1.05,2.84-.04,1.19-.04,2.37,0,3.56.05,1.33.41,2.29,1.06,2.87s1.51.87,2.56.87c.71,0,1.34-.13,1.89-.4.55-.27.99-.67,1.31-1.21.32-.54.48-1.23.48-2.07v-.84h-3c-.13,0-.24-.04-.33-.13-.09-.09-.13-.2-.13-.35v-.64c0-.15.04-.26.13-.35s.2-.13.33-.13h4.52c.15,0,.26.04.34.13.08.09.12.2.12.35v1.92c0,1.09-.22,2.05-.67,2.86s-1.1,1.44-1.95,1.89c-.85.45-1.87.67-3.04.67Z"></path>
            <path class="cls-1" d="m81.63,144.07c-.13,0-.24-.04-.33-.13s-.13-.2-.13-.33v-9.46c0-.13.04-.25.13-.34.09-.09.2-.14.33-.14h.92c.13,0,.25.05.34.14.09.09.14.21.14.34v.88c.27-.45.63-.79,1.1-1.02s1.03-.34,1.7-.34h.78c.13,0,.24.04.33.13.09.09.13.2.13.33v.82c0,.13-.04.24-.13.32-.09.08-.2.12-.33.12h-1.2c-.72,0-1.29.21-1.7.63s-.62.99-.62,1.71v5.88c0,.13-.05.24-.14.33-.09.09-.21.13-.34.13h-.98Z"></path>
            <path class="cls-1" d="m92.53,144.27c-1.01,0-1.86-.19-2.54-.58s-1.2-.92-1.56-1.61c-.36-.69-.56-1.47-.6-2.35-.01-.23-.02-.52-.02-.87s0-.64.02-.85c.04-.89.24-1.68.61-2.36.37-.68.89-1.21,1.57-1.6.68-.39,1.52-.58,2.52-.58s1.84.19,2.52.58c.68.39,1.2.92,1.57,1.6s.57,1.47.61,2.36c.01.21.02.5.02.85s0,.64-.02.87c-.04.88-.24,1.66-.6,2.35-.36.69-.88,1.22-1.56,1.61s-1.53.58-2.54.58Zm0-1.54c.83,0,1.49-.26,1.98-.79.49-.53.76-1.3.8-2.31.01-.2.02-.45.02-.76s0-.56-.02-.76c-.04-1.01-.31-1.78-.8-2.31-.49-.53-1.15-.79-1.98-.79s-1.49.26-1.99.79-.76,1.3-.79,2.31c-.01.2-.02.45-.02.76s0,.56.02.76c.03,1.01.29,1.78.79,2.31.5.53,1.16.79,1.99.79Z"></path>
            <path class="cls-1" d="m103.33,144.27c-.85,0-1.58-.19-2.17-.57-.59-.38-1.04-.91-1.35-1.59-.31-.68-.46-1.46-.46-2.34v-5.64c0-.13.04-.24.13-.33.09-.09.2-.13.33-.13h1c.13,0,.24.04.33.13s.13.2.13.33v5.54c0,1.99.87,2.98,2.6,2.98.83,0,1.49-.26,1.99-.79.5-.53.75-1.26.75-2.19v-5.54c0-.13.04-.24.13-.33.09-.09.2-.13.33-.13h1c.13,0,.24.04.32.13s.12.2.12.33v9.48c0,.13-.04.24-.12.33s-.19.13-.32.13h-.94c-.13,0-.24-.04-.33-.13s-.13-.2-.13-.33v-.88c-.36.47-.8.84-1.31,1.12-.51.28-1.19.42-2.03.42Z"></path>
            <path class="cls-1" d="m111.67,147.87c-.13,0-.24-.04-.33-.13s-.13-.2-.13-.33v-13.28c0-.13.04-.24.13-.33s.2-.13.33-.13h.92c.13,0,.24.04.33.13.09.09.13.2.13.33v.88c.32-.44.75-.81,1.28-1.1.53-.29,1.2-.44,2-.44.75,0,1.38.13,1.91.38.53.25.96.6,1.3,1.04.34.44.6.94.77,1.5.17.56.27,1.16.3,1.8.01.21.02.44.02.68s0,.47-.02.68c-.03.63-.13,1.22-.3,1.79s-.43,1.07-.77,1.5-.77.78-1.3,1.04c-.53.26-1.16.39-1.91.39s-1.42-.14-1.95-.43c-.53-.29-.96-.64-1.29-1.07v4.64c0,.13-.04.24-.12.33s-.19.13-.32.13h-.98Zm4.24-5.22c.69,0,1.24-.15,1.63-.45.39-.3.68-.69.85-1.18.17-.49.27-1.01.3-1.57.01-.39.01-.77,0-1.16-.03-.56-.13-1.08-.3-1.57-.17-.49-.46-.88-.85-1.18-.39-.3-.94-.45-1.63-.45-.65,0-1.18.15-1.59.46-.41.31-.71.7-.9,1.17s-.3.96-.33,1.45c-.01.21-.02.47-.02.76s0,.55.02.78c.01.47.12.93.33,1.38.21.45.52.83.93,1.12.41.29.93.44,1.56.44Z"></path>
          </g>
        </g>
        <g>
          <path class="cls-3" d="m12.92,96.32c-.09,0-.16-.03-.2-.08-.05-.05-.07-.12-.07-.2v-7.84c0-.09.02-.16.07-.21.05-.05.12-.08.2-.08h3.29c.6,0,1.09.1,1.47.29.38.2.66.46.84.8s.27.71.27,1.13c0,.33-.05.61-.16.85-.11.24-.24.43-.4.58s-.32.26-.47.34c.31.15.59.4.83.74.24.34.37.76.37,1.25,0,.44-.1.84-.3,1.21s-.5.66-.89.88c-.4.22-.89.33-1.47.33h-3.37Zm.9-4.85h2.21c.51,0,.9-.12,1.16-.35.26-.24.4-.56.4-.97s-.13-.72-.4-.94c-.26-.22-.65-.32-1.16-.32h-2.21v2.58Zm0,3.88h2.32c.52,0,.92-.14,1.2-.42.28-.28.42-.62.42-1.03s-.14-.77-.42-1.05c-.28-.28-.68-.41-1.2-.41h-2.32v2.92Z"></path>
          <path class="cls-3" d="m21.6,98.6c-.06,0-.12-.02-.17-.07-.05-.05-.07-.1-.07-.17,0-.03,0-.06.01-.1,0-.03.02-.07.05-.12l.92-2.2-2.29-5.41c-.04-.1-.06-.16-.06-.2,0-.07.02-.13.07-.18s.11-.07.18-.07h.59c.08,0,.14.02.19.06.05.04.08.09.1.14l1.82,4.37,1.87-4.37c.02-.06.06-.1.1-.14.04-.04.11-.06.2-.06h.56c.07,0,.13.02.18.07s.07.1.07.17c0,.04-.02.11-.06.22l-3.41,7.86c-.02.06-.06.1-.1.14-.04.04-.11.06-.2.06h-.56Z"></path>
        </g>
      </g>
      <rect class="cls-2" x="10.53" y="-10.53" width="166.93" height="188" transform="translate(177.47 -10.53) rotate(90)"></rect>
    </g>
  </g>
</svg>