<?xml version="1.0" encoding="UTF-8"?>
<svg id="Capa_2" data-name="Capa 2" xmlns="http://www.w3.org/2000/svg" viewBox="0 0 188 166.93">
  <defs>
    
  </defs>
  <g id="Capa_1-2" data-name="Capa 1">
    <g>
      <g>
        <g>
          <g>
            <polygon class="cls-3" points="126.97 39.03 120.37 35.23 94 50.45 87.41 46.65 107.2 35.22 100.59 31.42 80.81 42.84 74.22 39.03 100.59 23.81 94 20 61.03 39.03 94.01 58.06 126.97 39.03"></polygon>
            <g class="cls-1">
              <polygon class="cls-3" points="126.97 69.49 120.37 65.68 94 80.9 87.41 77.1 107.19 65.68 100.59 61.87 80.81 73.29 74.22 69.48 87.41 61.87 80.81 58.06 61.03 69.48 94 88.52 126.97 69.49"></polygon>
            </g>
          </g>
          <g>
            <path class="cls-3" d="m20.48,121.51c-.13,0-.25-.05-.34-.14-.09-.09-.14-.21-.14-.34v-13.02c0-.15.05-.27.14-.36.09-.09.21-.14.34-.14h8.8c.15,0,.27.05.36.14s.14.21.14.36v1.32c0,.13-.05.25-.14.34s-.21.14-.36.14h-6.58v3.54h6.14c.15,0,.27.04.36.13.09.09.14.2.14.35v1.24c0,.15-.05.26-.14.35s-.21.13-.36.13h-6.14v3.66h6.74c.15,0,.27.05.36.14s.14.21.14.36v1.32c0,.13-.05.25-.14.34-.09.09-.21.14-.36.14h-8.96Z"></path>
            <path class="cls-3" d="m32.92,121.51c-.13,0-.25-.05-.34-.14-.09-.09-.14-.21-.14-.34v-13.02c0-.15.05-.27.14-.36.09-.09.21-.14.34-.14h4.88c1.35,0,2.46.21,3.33.62s1.53,1.03,1.98,1.84c.45.81.68,1.81.69,2.98.03.59.04,1.11.04,1.56s-.01.97-.04,1.54c-.03,1.24-.25,2.26-.68,3.07s-1.07,1.41-1.93,1.8c-.86.39-1.96.59-3.29.59h-4.98Zm2.3-2.3h2.58c.75,0,1.35-.11,1.82-.32.47-.21.81-.56,1.03-1.03.22-.47.34-1.1.35-1.87.01-.4.02-.75.03-1.05,0-.3,0-.6,0-.9s-.02-.64-.03-1.03c-.03-1.09-.3-1.9-.82-2.42-.52-.52-1.35-.78-2.48-.78h-2.48v9.4Z"></path>
            <path class="cls-3" d="m52.08,121.71c-1.16,0-2.17-.2-3.02-.59-.85-.39-1.51-1-1.98-1.82-.47-.82-.7-1.87-.7-3.15v-8.14c0-.15.05-.27.14-.36.09-.09.21-.14.34-.14h1.82c.15,0,.26.05.35.14.09.09.13.21.13.36v8.14c0,1.09.26,1.9.78,2.43.52.53,1.23.79,2.14.79s1.62-.26,2.13-.79.77-1.34.77-2.43v-8.14c0-.15.05-.27.14-.36.09-.09.21-.14.36-.14h1.8c.15,0,.26.05.35.14.09.09.13.21.13.36v8.14c0,1.28-.23,2.33-.69,3.15-.46.82-1.11,1.43-1.96,1.82-.85.39-1.86.59-3.03.59Z"></path>
            <path class="cls-3" d="m66.16,121.71c-1.24,0-2.29-.22-3.15-.65-.86-.43-1.52-1.05-1.97-1.86s-.71-1.78-.76-2.91c-.01-.55-.02-1.13-.02-1.76s0-1.23.02-1.8c.05-1.12.31-2.09.77-2.9.46-.81,1.12-1.44,1.98-1.87.86-.43,1.9-.65,3.13-.65.91,0,1.72.12,2.44.36.72.24,1.33.57,1.84.99.51.42.9.91,1.18,1.47.28.56.43,1.17.44,1.82.01.12-.02.22-.11.3-.09.08-.19.12-.31.12h-1.9c-.15,0-.27-.04-.36-.11s-.16-.2-.2-.37c-.21-.88-.58-1.48-1.1-1.8s-1.17-.48-1.94-.48c-.89,0-1.61.25-2.14.75s-.82,1.32-.86,2.47c-.04,1.09-.04,2.21,0,3.36.04,1.15.33,1.97.86,2.47s1.25.75,2.14.75c.77,0,1.42-.16,1.95-.49.53-.33.89-.92,1.09-1.79.04-.19.11-.31.2-.38s.21-.1.36-.1h1.9c.12,0,.22.04.31.12.09.08.12.18.11.3-.01.65-.16,1.26-.44,1.82-.28.56-.67,1.05-1.18,1.47-.51.42-1.12.75-1.84.99-.72.24-1.53.36-2.44.36Z"></path>
            <path class="cls-3" d="m73.42,121.51c-.11,0-.2-.04-.29-.12-.09-.08-.13-.18-.13-.3,0-.05.01-.11.04-.18l4.82-12.9c.04-.13.12-.25.23-.35.11-.1.27-.15.47-.15h2.18c.2,0,.35.05.46.15.11.1.19.22.24.35l4.82,12.9c.01.07.02.13.02.18,0,.12-.04.22-.12.3s-.17.12-.28.12h-1.74c-.19,0-.32-.04-.41-.13-.09-.09-.14-.17-.17-.25l-.94-2.44h-5.94l-.94,2.44c-.03.08-.08.16-.17.25-.09.09-.22.13-.41.13h-1.74Zm3.96-5.12h4.54l-2.28-6.18-2.26,6.18Z"></path>
            <path class="cls-3" d="m92.68,121.51c-.13,0-.25-.05-.34-.14-.09-.09-.14-.21-.14-.34v-13.02c0-.15.05-.27.14-.36.09-.09.21-.14.34-.14h8.8c.15,0,.27.05.36.14s.14.21.14.36v1.32c0,.13-.05.25-.14.34s-.21.14-.36.14h-6.58v3.54h6.14c.15,0,.27.04.36.13.09.09.14.2.14.35v1.24c0,.15-.05.26-.14.35s-.21.13-.36.13h-6.14v3.66h6.74c.15,0,.27.05.36.14s.14.21.14.36v1.32c0,.13-.05.25-.14.34-.09.09-.21.14-.36.14h-8.96Z"></path>
            <path class="cls-3" d="m105.12,121.51c-.13,0-.25-.05-.34-.14-.09-.09-.14-.21-.14-.34v-13.02c0-.15.05-.27.14-.36.09-.09.21-.14.34-.14h4.88c1.35,0,2.46.21,3.33.62s1.53,1.03,1.98,1.84c.45.81.68,1.81.69,2.98.03.59.04,1.11.04,1.56s-.01.97-.04,1.54c-.03,1.24-.25,2.26-.68,3.07s-1.07,1.41-1.93,1.8c-.86.39-1.96.59-3.29.59h-4.98Zm2.3-2.3h2.58c.75,0,1.35-.11,1.82-.32.47-.21.81-.56,1.03-1.03.22-.47.34-1.1.35-1.87.01-.4.02-.75.03-1.05,0-.3,0-.6,0-.9s-.02-.64-.03-1.03c-.03-1.09-.3-1.9-.82-2.42-.52-.52-1.35-.78-2.48-.78h-2.48v9.4Z"></path>
            <path class="cls-3" d="m122,121.51c-.13,0-.25-.05-.34-.14s-.14-.21-.14-.34v-11.06h-3.7c-.13,0-.25-.05-.34-.14-.09-.09-.14-.21-.14-.34v-1.48c0-.15.05-.27.14-.36.09-.09.21-.14.34-.14h10.2c.15,0,.27.05.36.14.09.09.14.21.14.36v1.48c0,.13-.05.25-.14.34-.09.09-.21.14-.36.14h-3.68v11.06c0,.13-.05.25-.14.34s-.21.14-.36.14h-1.84Z"></path>
            <path class="cls-3" d="m131.02,121.51c-.13,0-.25-.05-.34-.14-.09-.09-.14-.21-.14-.34v-13.02c0-.15.05-.27.14-.36.09-.09.21-.14.34-.14h8.8c.15,0,.27.05.36.14s.14.21.14.36v1.32c0,.13-.05.25-.14.34s-.21.14-.36.14h-6.58v3.54h6.14c.15,0,.27.04.36.13.09.09.14.2.14.35v1.24c0,.15-.05.26-.14.35s-.21.13-.36.13h-6.14v3.66h6.74c.15,0,.27.05.36.14s.14.21.14.36v1.32c0,.13-.05.25-.14.34-.09.09-.21.14-.36.14h-8.96Z"></path>
            <path class="cls-3" d="m148.26,121.71c-1.24,0-2.29-.22-3.15-.65-.86-.43-1.52-1.05-1.97-1.86s-.71-1.78-.76-2.91c-.01-.55-.02-1.13-.02-1.76s0-1.23.02-1.8c.05-1.12.31-2.09.77-2.9.46-.81,1.12-1.44,1.98-1.87.86-.43,1.9-.65,3.13-.65.91,0,1.72.12,2.44.36.72.24,1.33.57,1.84.99.51.42.9.91,1.18,1.47.28.56.43,1.17.44,1.82.01.12-.02.22-.11.3-.09.08-.19.12-.31.12h-1.9c-.15,0-.27-.04-.36-.11s-.16-.2-.2-.37c-.21-.88-.58-1.48-1.1-1.8s-1.17-.48-1.94-.48c-.89,0-1.61.25-2.14.75s-.82,1.32-.86,2.47c-.04,1.09-.04,2.21,0,3.36.04,1.15.33,1.97.86,2.47s1.25.75,2.14.75c.77,0,1.42-.16,1.95-.49.53-.33.89-.92,1.09-1.79.04-.19.11-.31.2-.38s.21-.1.36-.1h1.9c.12,0,.22.04.31.12.09.08.12.18.11.3-.01.65-.16,1.26-.44,1.82-.28.56-.67,1.05-1.18,1.47-.51.42-1.12.75-1.84.99-.72.24-1.53.36-2.44.36Z"></path>
            <path class="cls-3" d="m157.02,121.51c-.13,0-.25-.04-.34-.13-.09-.09-.14-.2-.14-.35v-13.02c0-.15.05-.27.14-.36.09-.09.21-.14.34-.14h1.82c.15,0,.26.05.35.14.09.09.13.21.13.36v5.16h5.9v-5.16c0-.15.05-.27.14-.36.09-.09.21-.14.34-.14h1.8c.15,0,.27.05.36.14.09.09.14.21.14.36v13.02c0,.13-.05.25-.14.34-.09.09-.21.14-.36.14h-1.8c-.13,0-.25-.05-.34-.14-.09-.09-.14-.21-.14-.34v-5.36h-5.9v5.36c0,.13-.04.25-.13.34-.09.09-.2.14-.35.14h-1.82Z"></path>
            <path class="cls-3" d="m75.29,143.69c-1.07,0-1.97-.2-2.71-.59-.74-.4-1.3-.95-1.69-1.67-.39-.72-.61-1.57-.66-2.54-.01-.53-.02-1.09-.02-1.68s0-1.16.02-1.7c.05-.97.27-1.81.66-2.53.39-.71.96-1.27,1.7-1.66.74-.39,1.64-.58,2.7-.58.84,0,1.57.12,2.2.36.62.24,1.14.54,1.54.91s.7.75.9,1.14c.2.4.3.74.31,1.04.01.11-.02.2-.09.26-.07.07-.17.1-.29.1h-1.06c-.12,0-.21-.02-.26-.07-.05-.05-.11-.13-.15-.25-.11-.31-.29-.62-.53-.92-.25-.3-.58-.55-.99-.75-.41-.2-.94-.3-1.58-.3-.96,0-1.73.26-2.31.77s-.9,1.37-.94,2.56c-.04,1.07-.04,2.14,0,3.2.05,1.2.37,2.06.95,2.58.59.52,1.36.78,2.3.78.64,0,1.2-.12,1.7-.36.5-.24.89-.6,1.18-1.09.29-.49.43-1.11.43-1.86v-.76h-2.7c-.12,0-.22-.04-.3-.12-.08-.08-.12-.18-.12-.31v-.58c0-.13.04-.24.12-.32.08-.08.18-.12.3-.12h4.07c.13,0,.23.04.31.12.07.08.11.18.11.32v1.73c0,.98-.2,1.84-.6,2.57-.4.73-.99,1.3-1.75,1.7-.77.4-1.68.6-2.74.6Z"></path>
            <path class="cls-3" d="m82.87,143.51c-.12,0-.22-.04-.3-.12-.08-.08-.12-.18-.12-.3v-8.51c0-.12.04-.22.12-.31.08-.08.18-.13.3-.13h.83c.12,0,.22.04.31.13s.13.19.13.31v.79c.24-.41.57-.71.99-.92.42-.2.93-.31,1.53-.31h.7c.12,0,.22.04.3.12.08.08.12.18.12.3v.74c0,.12-.04.22-.12.29s-.18.11-.3.11h-1.08c-.65,0-1.16.19-1.53.57-.37.38-.56.89-.56,1.54v5.29c0,.12-.04.22-.12.3-.08.08-.19.12-.31.12h-.88Z"></path>
            <path class="cls-3" d="m92.68,143.69c-.91,0-1.67-.17-2.29-.52-.61-.35-1.08-.83-1.4-1.45-.32-.62-.5-1.32-.54-2.11-.01-.2-.02-.47-.02-.78s0-.57.02-.77c.04-.8.22-1.51.55-2.12.33-.61.8-1.09,1.41-1.44s1.37-.52,2.27-.52,1.66.17,2.27.52,1.08.83,1.41,1.44c.33.61.51,1.32.55,2.12.01.19.02.45.02.77s0,.58-.02.78c-.04.79-.22,1.5-.54,2.11-.32.62-.79,1.1-1.4,1.45-.61.35-1.38.52-2.29.52Zm0-1.39c.74,0,1.34-.24,1.78-.71.44-.47.68-1.17.72-2.08.01-.18.02-.41.02-.68s0-.5-.02-.68c-.04-.91-.28-1.61-.72-2.08-.45-.47-1.04-.71-1.78-.71s-1.34.24-1.79.71c-.45.47-.69,1.17-.71,2.08-.01.18-.02.41-.02.68s0,.5.02.68c.02.91.26,1.61.71,2.08.45.47,1.05.71,1.79.71Z"></path>
            <path class="cls-3" d="m102.4,143.69c-.77,0-1.42-.17-1.95-.51-.53-.34-.94-.82-1.21-1.43-.28-.61-.41-1.31-.41-2.11v-5.08c0-.12.04-.22.12-.3.08-.08.18-.12.3-.12h.9c.12,0,.22.04.3.12.08.08.12.18.12.3v4.99c0,1.79.78,2.68,2.34,2.68.74,0,1.34-.24,1.79-.71.45-.47.67-1.13.67-1.97v-4.99c0-.12.04-.22.12-.3.08-.08.18-.12.3-.12h.9c.12,0,.22.04.29.12.07.08.11.18.11.3v8.53c0,.12-.04.22-.11.3-.07.08-.17.12-.29.12h-.85c-.12,0-.22-.04-.3-.12-.08-.08-.12-.18-.12-.3v-.79c-.32.42-.72.76-1.18,1.01-.46.25-1.07.38-1.83.38Z"></path>
            <path class="cls-3" d="m109.9,146.93c-.12,0-.22-.04-.3-.12-.08-.08-.12-.18-.12-.3v-11.95c0-.12.04-.22.12-.3.08-.08.18-.12.3-.12h.83c.12,0,.22.04.3.12.08.08.12.18.12.3v.79c.29-.4.67-.73,1.15-.99.48-.26,1.08-.4,1.8-.4.67,0,1.24.11,1.72.34.47.23.86.54,1.17.94.31.4.54.85.69,1.35s.25,1.04.27,1.62c.01.19.02.4.02.61s0,.42-.02.61c-.02.56-.11,1.1-.27,1.61-.16.51-.39.96-.69,1.35-.31.39-.7.7-1.17.94-.47.23-1.05.35-1.72.35s-1.28-.13-1.75-.39-.86-.58-1.16-.96v4.18c0,.12-.04.22-.11.3-.07.08-.17.12-.29.12h-.88Zm3.82-4.7c.62,0,1.11-.14,1.47-.41.35-.27.61-.62.76-1.06.16-.44.25-.91.27-1.41.01-.35.01-.7,0-1.04-.02-.5-.11-.97-.27-1.41-.16-.44-.41-.79-.76-1.06s-.84-.41-1.47-.41c-.59,0-1.07.14-1.43.41-.37.28-.64.63-.81,1.05-.17.43-.27.86-.3,1.31-.01.19-.02.42-.02.68s0,.5.02.7c.01.42.11.83.3,1.24s.46.74.84,1.01c.37.26.84.4,1.4.4Z"></path>
          </g>
        </g>
        <rect class="cls-2" x="10.53" y="-10.53" width="166.93" height="188" transform="translate(177.47 -10.53) rotate(90)"></rect>
      </g>
      <g class="cls-1">
        <g>
          <path class="cls-3" d="m20.28,96.46c-.09,0-.16-.03-.2-.08-.05-.05-.07-.12-.07-.2v-7.84c0-.09.02-.16.07-.21.05-.05.12-.08.2-.08h3.29c.6,0,1.09.1,1.47.29.38.2.66.46.84.8s.27.71.27,1.13c0,.33-.05.61-.16.85-.11.24-.24.43-.4.58s-.32.26-.47.34c.31.15.59.4.83.74.24.34.37.76.37,1.25,0,.44-.1.84-.3,1.21s-.5.66-.89.88c-.4.22-.89.33-1.47.33h-3.37Zm.9-4.85h2.21c.51,0,.9-.12,1.16-.35.26-.24.4-.56.4-.97s-.13-.72-.4-.94c-.26-.22-.65-.32-1.16-.32h-2.21v2.58Zm0,3.88h2.32c.52,0,.92-.14,1.2-.42.28-.28.42-.62.42-1.03s-.14-.77-.42-1.05c-.28-.28-.68-.41-1.2-.41h-2.32v2.92Z"></path>
          <path class="cls-3" d="m28.95,98.74c-.06,0-.12-.02-.17-.07-.05-.05-.07-.1-.07-.17,0-.03,0-.06.01-.1,0-.03.02-.07.05-.12l.92-2.2-2.29-5.41c-.04-.1-.06-.16-.06-.2,0-.07.02-.13.07-.18s.11-.07.18-.07h.59c.08,0,.14.02.19.06.05.04.08.09.1.14l1.82,4.37,1.87-4.37c.02-.06.06-.1.1-.14.04-.04.11-.06.2-.06h.56c.07,0,.13.02.18.07s.07.1.07.17c0,.04-.02.11-.06.22l-3.41,7.86c-.02.06-.06.1-.1.14-.04.04-.11.06-.2.06h-.56Z"></path>
        </g>
      </g>
    </g>
  </g>
</svg>