<?xml version="1.0" encoding="UTF-8"?>
<svg id="Capa_2" data-name="Capa 2" xmlns="http://www.w3.org/2000/svg" viewBox="0 0 317.24 108.18">
  <defs>
    
  </defs>
  <g id="Capa_1-2" data-name="Capa 1">
    <g>
      <g>
        <g>
          <polygon class="cls-4" points="85.46 39.42 78.89 35.63 52.65 50.79 46.09 47 65.79 35.62 59.21 31.85 39.53 43.21 32.97 39.42 59.21 24.27 52.65 20.48 19.85 39.42 52.66 58.36 85.46 39.42"></polygon>
          <g class="cls-5">
            <polygon class="cls-4" points="85.46 69.72 78.89 65.94 52.65 81.08 46.09 77.3 65.77 65.94 59.21 62.15 39.53 73.51 32.97 69.72 46.09 62.14 39.53 58.36 19.85 69.72 52.65 88.66 85.46 69.72"></polygon>
          </g>
        </g>
        <g>
          <path class="cls-1" fill="#202020" d="m109.91,58.44c-.17,0-.32-.06-.44-.18-.12-.12-.18-.27-.18-.44v-16.93c0-.19.06-.35.18-.47.12-.12.27-.18.44-.18h11.44c.19,0,.35.06.47.18.12.12.18.28.18.47v1.72c0,.17-.06.32-.18.44-.12.12-.28.18-.47.18h-8.55v4.6h7.98c.19,0,.35.06.47.17.12.11.18.26.18.46v1.61c0,.19-.06.34-.18.46-.12.11-.28.17-.47.17h-7.98v4.76h8.76c.19,0,.35.06.47.18.12.12.18.28.18.47v1.72c0,.17-.06.32-.18.44-.12.12-.28.18-.47.18h-11.65Z"></path>
          <path class="cls-1" fill="#202020" d="m125.69,58.44c-.17,0-.32-.06-.44-.18-.12-.12-.18-.27-.18-.44v-16.93c0-.19.06-.35.18-.47.12-.12.27-.18.44-.18h6.34c1.75,0,3.19.27,4.33.81,1.13.54,1.99,1.33,2.57,2.39.58,1.06.88,2.35.9,3.87.03.76.05,1.44.05,2.03s-.02,1.26-.05,2c-.04,1.61-.33,2.94-.88,3.99s-1.39,1.83-2.51,2.34c-1.12.51-2.54.77-4.28.77h-6.47Zm2.99-2.99h3.35c.97,0,1.76-.14,2.37-.42.61-.28,1.05-.72,1.34-1.34.29-.61.44-1.43.46-2.43.02-.52.03-.98.04-1.37,0-.39,0-.78,0-1.17,0-.39-.02-.84-.04-1.34-.04-1.42-.39-2.47-1.07-3.15-.68-.68-1.75-1.01-3.22-1.01h-3.22v12.22Z"></path>
          <path class="cls-1" fill="#202020" d="m150.21,58.7c-1.51,0-2.82-.26-3.93-.77-1.11-.51-1.97-1.3-2.57-2.37-.61-1.07-.91-2.43-.91-4.09v-10.58c0-.19.06-.35.18-.47.12-.12.27-.18.44-.18h2.37c.19,0,.34.06.46.18.11.12.17.28.17.47v10.58c0,1.42.34,2.47,1.01,3.16.68.69,1.6,1.03,2.78,1.03s2.1-.34,2.77-1.03c.67-.68,1-1.74,1-3.16v-10.58c0-.19.06-.35.18-.47.12-.12.28-.18.47-.18h2.34c.19,0,.34.06.46.18.11.12.17.28.17.47v10.58c0,1.66-.3,3.03-.9,4.09-.6,1.07-1.45,1.85-2.55,2.37-1.1.51-2.41.77-3.94.77Z"></path>
          <path class="cls-1" fill="#202020" d="m168.12,58.7c-1.61,0-2.98-.28-4.09-.84-1.12-.56-1.97-1.37-2.56-2.42-.59-1.05-.92-2.31-.99-3.78-.02-.71-.03-1.47-.03-2.29s0-1.59.03-2.34c.07-1.46.4-2.71,1-3.77.6-1.06,1.46-1.87,2.57-2.43,1.12-.56,2.47-.84,4.07-.84,1.18,0,2.24.16,3.17.47.94.31,1.73.74,2.39,1.29.66.55,1.17,1.18,1.53,1.91.36.73.55,1.52.57,2.37.02.16-.03.29-.14.39-.11.1-.25.16-.4.16h-2.47c-.19,0-.35-.05-.47-.14-.12-.1-.21-.26-.26-.48-.28-1.14-.75-1.92-1.43-2.34s-1.52-.62-2.52-.62c-1.16,0-2.09.33-2.78.98-.69.65-1.07,1.72-1.12,3.21-.05,1.42-.05,2.88,0,4.37s.42,2.56,1.12,3.21c.69.65,1.62.98,2.78.98,1,0,1.85-.21,2.52-.64.68-.42,1.15-1.2,1.43-2.33.05-.24.14-.41.26-.49.12-.09.28-.13.47-.13h2.47c.16,0,.29.05.4.16.11.1.16.23.14.39-.02.85-.21,1.64-.57,2.37-.36.73-.88,1.36-1.53,1.91-.66.55-1.46.98-2.39,1.29-.94.31-1.99.47-3.17.47Z"></path>
          <path class="cls-1" fill="#202020" d="m177.17,58.44c-.14,0-.26-.05-.38-.16-.11-.1-.17-.23-.17-.39,0-.07.02-.15.05-.23l6.27-16.77c.05-.17.15-.33.3-.46.15-.13.35-.2.61-.2h2.83c.26,0,.46.07.6.2.14.13.24.28.31.46l6.27,16.77c.02.09.03.16.03.23,0,.16-.05.29-.16.39-.1.1-.23.16-.36.16h-2.26c-.24,0-.42-.06-.53-.17-.11-.11-.19-.22-.22-.33l-1.22-3.17h-7.72l-1.22,3.17c-.04.1-.11.21-.22.33-.11.11-.29.17-.53.17h-2.26Zm5.15-6.66h5.9l-2.96-8.03-2.94,8.03Z"></path>
          <path class="cls-1" fill="#202020" d="m201.43,58.44c-.17,0-.32-.06-.44-.18-.12-.12-.18-.27-.18-.44v-16.93c0-.19.06-.35.18-.47.12-.12.27-.18.44-.18h11.44c.19,0,.35.06.47.18.12.12.18.28.18.47v1.72c0,.17-.06.32-.18.44-.12.12-.28.18-.47.18h-8.55v4.6h7.98c.19,0,.35.06.47.17.12.11.18.26.18.46v1.61c0,.19-.06.34-.18.46-.12.11-.28.17-.47.17h-7.98v4.76h8.76c.19,0,.35.06.47.18.12.12.18.28.18.47v1.72c0,.17-.06.32-.18.44-.12.12-.28.18-.47.18h-11.65Z"></path>
          <path class="cls-1" fill="#202020" d="m217.21,58.44c-.17,0-.32-.06-.44-.18-.12-.12-.18-.27-.18-.44v-16.93c0-.19.06-.35.18-.47.12-.12.27-.18.44-.18h6.34c1.75,0,3.19.27,4.33.81,1.13.54,1.99,1.33,2.57,2.39.58,1.06.88,2.35.9,3.87.03.76.05,1.44.05,2.03s-.02,1.26-.05,2c-.04,1.61-.33,2.94-.88,3.99s-1.39,1.83-2.51,2.34c-1.12.51-2.54.77-4.28.77h-6.47Zm2.99-2.99h3.35c.97,0,1.76-.14,2.37-.42.61-.28,1.05-.72,1.34-1.34.29-.61.44-1.43.46-2.43.02-.52.03-.98.04-1.37,0-.39,0-.78,0-1.17,0-.39-.02-.84-.04-1.34-.04-1.42-.39-2.47-1.07-3.15-.68-.68-1.75-1.01-3.22-1.01h-3.22v12.22Z"></path>
          <path class="cls-1" fill="#202020" d="m238.77,58.44c-.17,0-.32-.06-.44-.18-.12-.12-.18-.27-.18-.44v-14.38h-4.81c-.17,0-.32-.06-.44-.18-.12-.12-.18-.27-.18-.44v-1.92c0-.19.06-.35.18-.47.12-.12.27-.18.44-.18h13.26c.19,0,.35.06.47.18.12.12.18.28.18.47v1.92c0,.17-.06.32-.18.44-.12.12-.28.18-.47.18h-4.78v14.38c0,.17-.06.32-.18.44-.12.12-.28.18-.47.18h-2.39Z"></path>
          <path class="cls-1" fill="#202020" d="m250.1,58.44c-.17,0-.32-.06-.44-.18-.12-.12-.18-.27-.18-.44v-16.93c0-.19.06-.35.18-.47.12-.12.27-.18.44-.18h11.44c.19,0,.35.06.47.18.12.12.18.28.18.47v1.72c0,.17-.06.32-.18.44-.12.12-.28.18-.47.18h-8.55v4.6h7.98c.19,0,.35.06.47.17.12.11.18.26.18.46v1.61c0,.19-.06.34-.18.46-.12.11-.28.17-.47.17h-7.98v4.76h8.76c.19,0,.35.06.47.18.12.12.18.28.18.47v1.72c0,.17-.06.32-.18.44-.12.12-.28.18-.47.18h-11.65Z"></path>
          <path class="cls-1" fill="#202020" d="m272.12,58.7c-1.61,0-2.98-.28-4.09-.84-1.12-.56-1.97-1.37-2.56-2.42-.59-1.05-.92-2.31-.99-3.78-.02-.71-.03-1.47-.03-2.29s0-1.59.03-2.34c.07-1.46.4-2.71,1-3.77.6-1.06,1.46-1.87,2.57-2.43,1.12-.56,2.47-.84,4.07-.84,1.18,0,2.24.16,3.17.47.94.31,1.73.74,2.39,1.29.66.55,1.17,1.18,1.53,1.91.36.73.55,1.52.57,2.37.02.16-.03.29-.14.39-.11.1-.25.16-.4.16h-2.47c-.19,0-.35-.05-.47-.14-.12-.1-.21-.26-.26-.48-.28-1.14-.75-1.92-1.43-2.34s-1.52-.62-2.52-.62c-1.16,0-2.09.33-2.78.98-.69.65-1.07,1.72-1.12,3.21-.05,1.42-.05,2.88,0,4.37s.42,2.56,1.12,3.21c.69.65,1.62.98,2.78.98,1,0,1.85-.21,2.52-.64.68-.42,1.15-1.2,1.43-2.33.05-.24.14-.41.26-.49.12-.09.28-.13.47-.13h2.47c.16,0,.29.05.4.16.11.1.16.23.14.39-.02.85-.21,1.64-.57,2.37-.36.73-.88,1.36-1.53,1.91-.66.55-1.46.98-2.39,1.29-.94.31-1.99.47-3.17.47Z"></path>
          <path class="cls-1" fill="#202020" d="m283.12,58.44c-.17,0-.32-.06-.44-.17s-.18-.26-.18-.46v-16.93c0-.19.06-.35.18-.47.12-.12.27-.18.44-.18h2.37c.19,0,.34.06.46.18.11.12.17.28.17.47v6.71h7.67v-6.71c0-.19.06-.35.18-.47.12-.12.27-.18.44-.18h2.34c.19,0,.35.06.47.18.12.12.18.28.18.47v16.93c0,.17-.06.32-.18.44-.12.12-.28.18-.47.18h-2.34c-.17,0-.32-.06-.44-.18-.12-.12-.18-.27-.18-.44v-6.97h-7.67v6.97c0,.17-.06.32-.17.44-.11.12-.26.18-.46.18h-2.37Z"></path>
          <path class="cls-1" fill="#202020" d="m114.76,84.66c-1.29,0-2.39-.24-3.29-.73-.9-.48-1.59-1.17-2.07-2.05-.48-.88-.74-1.91-.8-3.1-.01-.65-.02-1.33-.02-2.06s0-1.42.02-2.08c.06-1.19.33-2.21.8-3.08.48-.87,1.17-1.54,2.08-2.02s2-.73,3.28-.73c1.04,0,1.94.15,2.71.44.76.29,1.39.66,1.88,1.11s.86.91,1.1,1.4c.24.48.37.91.38,1.28.01.13-.02.24-.11.32-.09.08-.21.12-.35.12h-1.3c-.15,0-.25-.03-.32-.09-.07-.06-.13-.16-.19-.31-.13-.38-.35-.76-.65-1.12-.3-.37-.7-.67-1.21-.91-.51-.24-1.16-.36-1.95-.36-1.16,0-2.09.32-2.8.95-.71.63-1.1,1.67-1.16,3.12-.04,1.31-.04,2.61,0,3.92.06,1.47.45,2.52,1.17,3.16.72.64,1.66.96,2.82.96.78,0,1.47-.14,2.08-.43.61-.29,1.09-.73,1.44-1.33.35-.6.53-1.36.53-2.29v-.92h-3.3c-.15,0-.27-.05-.36-.14-.1-.1-.14-.22-.14-.38v-.7c0-.16.05-.29.14-.38.09-.1.22-.14.36-.14h4.97c.16,0,.29.05.37.14s.13.22.13.38v2.11c0,1.2-.25,2.25-.74,3.15-.49.9-1.21,1.59-2.14,2.08-.94.49-2.06.74-3.37.74Z"></path>
          <path class="cls-1" fill="#202020" d="m124.05,84.44c-.15,0-.27-.05-.36-.14-.1-.1-.14-.22-.14-.36v-10.41c0-.15.05-.27.14-.37.09-.1.22-.15.36-.15h1.01c.15,0,.27.05.37.15.1.1.15.23.15.37v.97c.29-.5.7-.87,1.21-1.12s1.13-.37,1.85-.37h.88c.15,0,.26.05.35.14s.13.22.13.36v.9c0,.15-.04.26-.13.35-.09.09-.21.13-.35.13h-1.32c-.79,0-1.42.23-1.87.69-.46.46-.68,1.09-.68,1.88v6.47c0,.15-.05.27-.15.36-.1.1-.23.14-.37.14h-1.08Z"></path>
          <path class="cls-1" fill="#202020" d="m136.04,84.66c-1.12,0-2.05-.21-2.79-.64-.75-.43-1.32-1.02-1.72-1.77-.4-.76-.62-1.62-.66-2.58-.01-.25-.02-.57-.02-.96s0-.7.02-.94c.04-.98.27-1.85.67-2.6.4-.75.98-1.33,1.73-1.76s1.67-.64,2.77-.64,2.02.21,2.77.64,1.32,1.01,1.73,1.76c.4.75.63,1.61.67,2.6.01.23.02.55.02.94s0,.71-.02.96c-.04.97-.26,1.83-.66,2.58-.4.76-.97,1.35-1.72,1.77s-1.68.64-2.79.64Zm0-1.69c.91,0,1.63-.29,2.18-.87.54-.58.84-1.43.88-2.54.01-.22.02-.5.02-.84s0-.62-.02-.84c-.04-1.11-.34-1.96-.88-2.54-.54-.58-1.27-.87-2.18-.87s-1.64.29-2.19.87c-.55.58-.84,1.43-.87,2.54-.01.22-.02.5-.02.84s0,.62.02.84c.03,1.11.32,1.96.87,2.54.55.58,1.28.87,2.19.87Z"></path>
          <path class="cls-1" fill="#202020" d="m147.92,84.66c-.94,0-1.74-.21-2.39-.63-.65-.42-1.15-1-1.48-1.75-.34-.75-.51-1.61-.51-2.57v-6.2c0-.15.05-.27.14-.36.09-.1.22-.14.36-.14h1.1c.15,0,.27.05.36.14.09.1.14.22.14.36v6.09c0,2.19.95,3.28,2.86,3.28.91,0,1.64-.29,2.19-.87.55-.58.83-1.38.83-2.41v-6.09c0-.15.05-.27.14-.36.09-.1.22-.14.36-.14h1.08c.16,0,.29.05.37.14s.13.22.13.36v10.43c0,.15-.04.27-.13.36-.09.1-.21.14-.37.14h-1.01c-.15,0-.27-.05-.36-.14-.1-.1-.14-.22-.14-.36v-.97c-.4.51-.88.92-1.44,1.23-.56.31-1.31.46-2.23.46Z"></path>
          <path class="cls-1" fill="#202020" d="m157.09,88.62c-.15,0-.27-.05-.36-.14-.1-.1-.14-.22-.14-.36v-14.61c0-.15.05-.27.14-.36s.22-.14.36-.14h1.01c.15,0,.27.05.36.14.09.1.14.22.14.36v.97c.35-.48.82-.89,1.41-1.21.59-.32,1.32-.48,2.2-.48.82,0,1.52.14,2.1.42.58.28,1.06.66,1.43,1.14.37.48.66,1.03.85,1.65.19.62.29,1.28.31,1.98.01.23.02.48.02.75s0,.51-.02.75c-.01.69-.12,1.35-.31,1.97-.19.62-.47,1.17-.85,1.65-.37.48-.85.86-1.43,1.14s-1.28.43-2.1.43-1.57-.16-2.15-.47c-.58-.32-1.05-.71-1.42-1.18v5.1c0,.15-.04.27-.13.36-.09.1-.21.14-.37.14h-1.06Zm4.66-5.74c.76,0,1.36-.17,1.79-.5s.74-.76.93-1.3c.19-.54.3-1.11.33-1.73.01-.43.01-.85,0-1.28-.03-.62-.14-1.19-.33-1.73-.19-.54-.5-.97-.93-1.3-.43-.33-1.03-.5-1.79-.5-.72,0-1.3.17-1.75.51-.45.34-.78.77-.99,1.29-.21.52-.33,1.05-.36,1.59-.01.23-.02.51-.02.84s0,.61.02.86c.01.51.14,1.02.36,1.52s.57.91,1.02,1.23c.46.32,1.03.48,1.72.48Z"></path>
        </g>
        <g>
          <path class="cls-3" d="m108.79,27.92c-.09,0-.16-.03-.2-.08-.05-.05-.07-.12-.07-.2v-7.84c0-.09.02-.16.07-.21.05-.05.12-.08.2-.08h3.29c.6,0,1.09.1,1.47.29.38.2.66.46.84.8s.27.71.27,1.13c0,.33-.05.61-.16.85-.11.24-.24.43-.4.58s-.32.26-.47.34c.31.15.59.4.83.74.24.34.37.76.37,1.25,0,.44-.1.84-.3,1.21s-.5.66-.89.88c-.4.22-.89.33-1.47.33h-3.37Zm.9-4.85h2.21c.51,0,.9-.12,1.16-.35.26-.24.4-.56.4-.97s-.13-.72-.4-.94c-.26-.22-.65-.32-1.16-.32h-2.21v2.58Zm0,3.88h2.32c.52,0,.92-.14,1.2-.42.28-.28.42-.62.42-1.03s-.14-.77-.42-1.05c-.28-.28-.68-.41-1.2-.41h-2.32v2.92Z"></path>
          <path class="cls-3" d="m117.46,30.2c-.06,0-.12-.02-.17-.07-.05-.05-.07-.1-.07-.17,0-.03,0-.06.01-.1,0-.03.02-.07.05-.12l.92-2.2-2.29-5.41c-.04-.1-.06-.16-.06-.2,0-.07.02-.13.07-.18s.11-.07.18-.07h.59c.08,0,.14.02.19.06.05.04.08.09.1.14l1.82,4.37,1.87-4.37c.02-.06.06-.1.1-.14.04-.04.11-.06.2-.06h.56c.07,0,.13.02.18.07s.07.1.07.17c0,.04-.02.11-.06.22l-3.41,7.86c-.02.06-.06.1-.1.14-.04.04-.11.06-.2.06h-.56Z"></path>
        </g>
      </g>
      <rect class="cls-2" x="104.53" y="-104.53" width="108.18" height="317.24" transform="translate(212.71 -104.53) rotate(90)"></rect>
    </g>
  </g>
</svg>