<?xml version="1.0" encoding="UTF-8"?>
<svg id="Capa_2" data-name="Capa 2" xmlns="http://www.w3.org/2000/svg" viewBox="0 0 180.14 138.52">
  <defs>
    
  </defs>
  <g id="Capa_1-2" data-name="Capa 1">
    <g>
      <g>
        <polygon class="cls-1" fill="#202020" points="126.11 20.81 118.9 16.65 90.07 33.29 82.86 29.13 104.5 16.64 97.28 12.48 75.65 24.97 68.45 20.81 97.28 4.16 90.07 0 54.03 20.81 90.08 41.61 126.11 20.81"></polygon>
        <g class="cls-2">
          <polygon class="cls-1" fill="#BABABA" points="126.11 54.1 118.9 49.94 90.07 66.58 82.86 62.42 104.49 49.94 97.28 45.78 75.65 58.26 68.45 54.1 82.86 45.77 75.65 41.61 54.03 54.1 90.07 74.9 126.11 54.1"></polygon>
        </g>
      </g>
      <g>
        <path class="cls-1" fill="#202020" d="m.58,109.34c-.16,0-.3-.06-.41-.17-.11-.11-.17-.25-.17-.41v-15.85c0-.18.06-.32.17-.44.11-.11.25-.17.41-.17h10.71c.18,0,.32.06.44.17.11.11.17.26.17.44v1.61c0,.16-.06.3-.17.41-.11.11-.26.17-.44.17H3.29v4.31h7.47c.18,0,.33.05.44.16.11.11.17.25.17.43v1.51c0,.18-.06.32-.17.43-.11.11-.26.16-.44.16H3.29v4.46h8.2c.18,0,.32.06.44.17.11.11.17.26.17.44v1.61c0,.16-.06.3-.17.41-.11.11-.26.17-.44.17H.58Z"></path>
        <path class="cls-1" fill="#202020" d="m15.73,109.34c-.16,0-.3-.06-.41-.17-.11-.11-.17-.25-.17-.41v-15.85c0-.18.06-.32.17-.44.11-.11.25-.17.41-.17h5.94c1.64,0,2.99.25,4.05.75,1.06.5,1.87,1.25,2.41,2.24.54.99.82,2.2.84,3.63.03.71.05,1.35.05,1.9s-.02,1.18-.05,1.87c-.03,1.51-.31,2.76-.83,3.74-.52.98-1.3,1.71-2.35,2.19-1.05.48-2.38.72-4,.72h-6.06Zm2.8-2.8h3.14c.91,0,1.65-.13,2.21-.39.57-.26.99-.68,1.25-1.25.27-.58.41-1.33.43-2.28.02-.49.03-.91.04-1.28,0-.36,0-.73,0-1.1,0-.37-.02-.78-.04-1.25-.03-1.33-.36-2.31-1-2.95-.63-.63-1.64-.95-3.02-.95h-3.02v11.44Z"></path>
        <path class="cls-1" fill="#202020" d="m39.05,109.58c-1.41,0-2.64-.24-3.68-.72-1.04-.48-1.84-1.22-2.41-2.22s-.85-2.28-.85-3.83v-9.91c0-.18.06-.32.17-.44.11-.11.25-.17.41-.17h2.21c.18,0,.32.06.43.17.11.11.16.26.16.44v9.91c0,1.33.32,2.32.95,2.96.63.64,1.5.96,2.6.96s1.97-.32,2.59-.96c.62-.64.94-1.63.94-2.96v-9.91c0-.18.06-.32.17-.44.11-.11.26-.17.44-.17h2.19c.18,0,.32.06.43.17.11.11.16.26.16.44v9.91c0,1.56-.28,2.84-.84,3.83-.56,1-1.36,1.74-2.39,2.22-1.03.48-2.26.72-3.69.72Z"></path>
        <path class="cls-1" fill="#202020" d="m56.18,109.58c-1.51,0-2.79-.26-3.83-.79-1.05-.53-1.85-1.28-2.4-2.26s-.86-2.16-.92-3.54c-.02-.67-.02-1.38-.02-2.14s0-1.49.02-2.19c.06-1.36.38-2.54.94-3.53.56-.99,1.36-1.75,2.41-2.28s2.32-.79,3.81-.79c1.1,0,2.09.15,2.97.44s1.62.69,2.24,1.21c.62.51,1.1,1.11,1.44,1.79s.52,1.42.54,2.22c.02.15-.03.27-.13.37-.11.1-.23.15-.38.15h-2.31c-.18,0-.33-.04-.44-.13-.11-.09-.19-.24-.24-.45-.26-1.07-.71-1.8-1.34-2.19-.63-.39-1.42-.58-2.36-.58-1.09,0-1.96.3-2.6.91-.65.61-1,1.61-1.05,3.01-.05,1.33-.05,2.69,0,4.09.05,1.4.4,2.4,1.05,3.01.65.61,1.52.91,2.6.91.94,0,1.73-.2,2.37-.6.64-.4,1.08-1.12,1.33-2.18.05-.23.13-.38.24-.46.11-.08.26-.12.44-.12h2.31c.15,0,.27.05.38.15.11.1.15.22.13.37-.02.8-.2,1.53-.54,2.22s-.82,1.28-1.44,1.79c-.62.51-1.36.91-2.24,1.21s-1.87.44-2.97.44Z"></path>
        <path class="cls-1" fill="#202020" d="m65.02,109.34c-.13,0-.25-.05-.35-.15-.11-.1-.16-.22-.16-.37,0-.06.02-.14.05-.22l5.87-15.7c.05-.16.14-.3.28-.43s.33-.18.57-.18h2.65c.24,0,.43.06.56.18s.23.26.29.43l5.87,15.7c.02.08.02.15.02.22,0,.15-.05.27-.15.37-.1.1-.21.15-.34.15h-2.12c-.23,0-.39-.05-.5-.16-.11-.11-.17-.21-.21-.3l-1.14-2.97h-7.23l-1.14,2.97c-.03.1-.1.2-.21.3s-.27.16-.5.16h-2.12Zm4.82-6.23h5.53l-2.78-7.52-2.75,7.52Z"></path>
        <path class="cls-1" fill="#202020" d="m88.46,109.34c-.16,0-.3-.06-.41-.17-.11-.11-.17-.25-.17-.41v-15.85c0-.18.06-.32.17-.44.11-.11.25-.17.41-.17h10.71c.18,0,.32.06.44.17.11.11.17.26.17.44v1.61c0,.16-.06.3-.17.41-.11.11-.26.17-.44.17h-8.01v4.31h7.47c.18,0,.33.05.44.16.11.11.17.25.17.43v1.51c0,.18-.06.32-.17.43-.11.11-.26.16-.44.16h-7.47v4.46h8.2c.18,0,.32.06.44.17.11.11.17.26.17.44v1.61c0,.16-.06.3-.17.41-.11.11-.26.17-.44.17h-10.91Z"></path>
        <path class="cls-1" fill="#202020" d="m103.61,109.34c-.16,0-.3-.06-.41-.17-.11-.11-.17-.25-.17-.41v-15.85c0-.18.06-.32.17-.44.11-.11.25-.17.41-.17h5.94c1.64,0,2.99.25,4.05.75,1.06.5,1.87,1.25,2.41,2.24.54.99.82,2.2.84,3.63.03.71.05,1.35.05,1.9s-.02,1.18-.05,1.87c-.03,1.51-.31,2.76-.83,3.74-.52.98-1.3,1.71-2.35,2.19-1.05.48-2.38.72-4,.72h-6.06Zm2.8-2.8h3.14c.91,0,1.65-.13,2.21-.39.57-.26.99-.68,1.25-1.25.27-.58.41-1.33.43-2.28.02-.49.03-.91.04-1.28,0-.36,0-.73,0-1.1,0-.37-.02-.78-.04-1.25-.03-1.33-.36-2.31-1-2.95-.63-.63-1.64-.95-3.02-.95h-3.02v11.44Z"></path>
        <path class="cls-1" fill="#202020" d="m124.15,109.34c-.16,0-.3-.06-.41-.17-.11-.11-.17-.25-.17-.41v-13.46h-4.5c-.16,0-.3-.06-.41-.17-.11-.11-.17-.25-.17-.41v-1.8c0-.18.06-.32.17-.44.11-.11.25-.17.41-.17h12.42c.18,0,.32.06.44.17.11.11.17.26.17.44v1.8c0,.16-.06.3-.17.41-.11.11-.26.17-.44.17h-4.48v13.46c0,.16-.06.3-.17.41-.11.11-.26.17-.44.17h-2.24Z"></path>
        <path class="cls-1" fill="#202020" d="m135.13,109.34c-.16,0-.3-.06-.41-.17-.11-.11-.17-.25-.17-.41v-15.85c0-.18.06-.32.17-.44.11-.11.25-.17.41-.17h10.71c.18,0,.32.06.44.17.11.11.17.26.17.44v1.61c0,.16-.06.3-.17.41-.11.11-.26.17-.44.17h-8.01v4.31h7.47c.18,0,.33.05.44.16.11.11.17.25.17.43v1.51c0,.18-.06.32-.17.43-.11.11-.26.16-.44.16h-7.47v4.46h8.2c.18,0,.32.06.44.17.11.11.17.26.17.44v1.61c0,.16-.06.3-.17.41-.11.11-.26.17-.44.17h-10.91Z"></path>
        <path class="cls-1" fill="#202020" d="m156.11,109.58c-1.51,0-2.79-.26-3.83-.79-1.05-.53-1.85-1.28-2.4-2.26s-.86-2.16-.92-3.54c-.02-.67-.02-1.38-.02-2.14s0-1.49.02-2.19c.06-1.36.38-2.54.94-3.53.56-.99,1.36-1.75,2.41-2.28s2.32-.79,3.81-.79c1.1,0,2.09.15,2.97.44s1.62.69,2.24,1.21c.62.51,1.1,1.11,1.44,1.79s.52,1.42.54,2.22c.02.15-.03.27-.13.37-.11.1-.23.15-.38.15h-2.31c-.18,0-.33-.04-.44-.13-.11-.09-.19-.24-.24-.45-.26-1.07-.71-1.8-1.34-2.19-.63-.39-1.42-.58-2.36-.58-1.09,0-1.96.3-2.6.91-.65.61-1,1.61-1.05,3.01-.05,1.33-.05,2.69,0,4.09.05,1.4.4,2.4,1.05,3.01.65.61,1.52.91,2.6.91.94,0,1.73-.2,2.37-.6.64-.4,1.08-1.12,1.33-2.18.05-.23.13-.38.24-.46.11-.08.26-.12.44-.12h2.31c.15,0,.27.05.38.15.11.1.15.22.13.37-.02.8-.2,1.53-.54,2.22s-.82,1.28-1.44,1.79c-.62.51-1.36.91-2.24,1.21s-1.87.44-2.97.44Z"></path>
        <path class="cls-1" fill="#202020" d="m166.78,109.34c-.16,0-.3-.05-.41-.16-.11-.11-.17-.25-.17-.43v-15.85c0-.18.06-.32.17-.44.11-.11.25-.17.41-.17h2.21c.18,0,.32.06.43.17.11.11.16.26.16.44v6.28h7.18v-6.28c0-.18.06-.32.17-.44.11-.11.25-.17.41-.17h2.19c.18,0,.32.06.44.17.11.11.17.26.17.44v15.85c0,.16-.06.3-.17.41-.11.11-.26.17-.44.17h-2.19c-.16,0-.3-.06-.41-.17-.11-.11-.17-.25-.17-.41v-6.52h-7.18v6.52c0,.16-.05.3-.16.41-.11.11-.25.17-.43.17h-2.21Z"></path>
        <path class="cls-1" fill="#202020" d="m66.54,134.56c-1.31,0-2.41-.24-3.31-.73-.9-.48-1.59-1.17-2.07-2.05-.48-.88-.74-1.91-.8-3.1-.01-.65-.02-1.33-.02-2.06s0-1.42.02-2.08c.06-1.19.33-2.22.8-3.09s1.17-1.55,2.08-2.02,2.01-.72,3.3-.72c1.03,0,1.92.15,2.68.44.76.29,1.39.66,1.88,1.11s.86.91,1.1,1.4c.24.48.37.91.38,1.28.01.13-.02.24-.11.32-.09.08-.21.12-.35.12h-1.3c-.15,0-.25-.03-.32-.09-.07-.06-.13-.16-.19-.31-.13-.38-.35-.76-.65-1.12-.3-.37-.7-.67-1.21-.91-.51-.24-1.15-.36-1.92-.36-1.17,0-2.12.32-2.83.95-.71.63-1.1,1.67-1.16,3.12-.04,1.31-.04,2.61,0,3.92.06,1.47.45,2.52,1.17,3.16.72.64,1.66.96,2.82.96.78,0,1.47-.15,2.08-.44.61-.29,1.09-.74,1.44-1.33.35-.59.53-1.35.53-2.28v-.92h-3.3c-.15,0-.27-.05-.36-.14-.1-.1-.14-.22-.14-.38v-.7c0-.16.05-.29.14-.38.09-.1.22-.14.36-.14h4.97c.16,0,.29.05.37.14s.13.22.13.38v2.11c0,1.2-.25,2.25-.74,3.15-.49.9-1.21,1.59-2.14,2.08-.94.49-2.05.74-3.34.74Z"></path>
        <path class="cls-1" fill="#202020" d="m76.13,134.34c-.15,0-.27-.05-.36-.14-.1-.1-.14-.22-.14-.36v-10.41c0-.15.05-.27.14-.37.09-.1.22-.15.36-.15h1.01c.15,0,.27.05.37.15.1.1.15.23.15.37v.97c.29-.5.7-.87,1.21-1.12s1.14-.37,1.87-.37h.86c.15,0,.27.05.36.14.1.1.14.22.14.36v.9c0,.15-.05.26-.14.35-.09.09-.22.13-.36.13h-1.32c-.79,0-1.42.23-1.87.69-.46.46-.68,1.09-.68,1.88v6.47c0,.15-.05.27-.15.36-.1.1-.23.14-.37.14h-1.08Z"></path>
        <path class="cls-1" fill="#202020" d="m88.45,134.56c-1.12,0-2.05-.21-2.79-.64-.75-.43-1.32-1.02-1.72-1.77-.4-.76-.62-1.62-.66-2.58-.01-.25-.02-.57-.02-.96s0-.7.02-.94c.04-.98.27-1.85.67-2.6.4-.75.98-1.33,1.73-1.76s1.67-.64,2.77-.64,2.02.21,2.77.64,1.32,1.01,1.73,1.76c.4.75.63,1.61.67,2.6.01.23.02.55.02.94s0,.71-.02.96c-.04.97-.26,1.83-.66,2.58-.4.76-.97,1.35-1.72,1.77s-1.68.64-2.79.64Zm0-1.69c.91,0,1.63-.29,2.18-.87.54-.58.84-1.43.88-2.54.01-.22.02-.5.02-.84s0-.62-.02-.84c-.04-1.11-.34-1.96-.88-2.54-.54-.58-1.27-.87-2.18-.87s-1.64.29-2.19.87c-.55.58-.84,1.43-.87,2.54-.01.22-.02.5-.02.84s0,.62.02.84c.03,1.11.32,1.96.87,2.54.55.58,1.28.87,2.19.87Z"></path>
        <path class="cls-1" fill="#202020" d="m100.66,134.56c-.94,0-1.74-.21-2.39-.63-.65-.42-1.15-1-1.48-1.75-.34-.75-.51-1.61-.51-2.57v-6.2c0-.15.05-.27.14-.36.09-.1.22-.14.36-.14h1.1c.15,0,.27.05.36.14.09.1.14.22.14.36v6.09c0,2.19.95,3.28,2.86,3.28.91,0,1.64-.29,2.19-.87.55-.58.83-1.38.83-2.41v-6.09c0-.15.05-.27.14-.36.09-.1.22-.14.36-.14h1.1c.15,0,.26.05.35.14s.13.22.13.36v10.43c0,.15-.04.27-.13.36-.09.1-.21.14-.35.14h-1.03c-.15,0-.27-.05-.36-.14-.1-.1-.14-.22-.14-.36v-.97c-.4.51-.88.92-1.44,1.23-.56.31-1.31.46-2.23.46Z"></path>
        <path class="cls-1" fill="#202020" d="m110.17,138.52c-.15,0-.27-.05-.36-.14-.1-.1-.14-.22-.14-.36v-14.61c0-.15.05-.27.14-.36s.22-.14.36-.14h1.01c.15,0,.27.05.36.14.09.1.14.22.14.36v.97c.35-.48.82-.89,1.41-1.21.59-.32,1.32-.48,2.2-.48.82,0,1.52.14,2.1.42.58.28,1.06.66,1.43,1.14.37.48.66,1.03.85,1.65.19.62.3,1.28.33,1.98.01.23.02.48.02.75s0,.51-.02.75c-.03.69-.14,1.35-.33,1.97-.19.62-.47,1.17-.85,1.65-.37.48-.85.86-1.43,1.14s-1.28.43-2.1.43-1.57-.16-2.15-.47c-.58-.32-1.05-.71-1.42-1.18v5.1c0,.15-.04.27-.13.36-.09.1-.21.14-.35.14h-1.08Zm4.66-5.74c.76,0,1.36-.17,1.79-.5s.74-.76.93-1.3c.19-.54.3-1.11.33-1.73.01-.43.01-.85,0-1.28-.03-.62-.14-1.19-.33-1.73-.19-.54-.5-.97-.93-1.3-.43-.33-1.03-.5-1.79-.5-.72,0-1.3.17-1.75.51-.45.34-.78.77-.99,1.29-.21.52-.33,1.05-.36,1.59-.01.23-.02.51-.02.84s0,.61.02.86c.01.51.14,1.02.36,1.52s.57.91,1.02,1.23c.46.32,1.03.48,1.72.48Z"></path>
      </g>
    </g>
  </g>
</svg>