<?xml version="1.0" encoding="UTF-8"?>
<svg id="Capa_2" data-name="Capa 2" xmlns="http://www.w3.org/2000/svg" viewBox="0 0 267.75 64.34">
  <defs>
    
  </defs>
  <g id="Capa_1-2" data-name="Capa 1">
    <g>
      <g>
        <polygon class="cls-1" fill="#FFFFFF" points="61.92 17.87 55.72 14.3 30.96 28.6 24.77 25.02 43.36 14.29 37.15 10.72 18.57 21.45 12.38 17.87 37.15 3.57 30.96 0 0 17.87 30.97 35.74 61.92 17.87"></polygon>
        <g class="cls-2">
          <polygon class="cls-1" fill="#FFFFFF" points="61.92 46.47 55.72 42.9 30.96 57.19 24.77 53.62 43.34 42.9 37.15 39.32 18.58 50.04 12.38 46.47 24.77 39.32 18.57 35.74 0 46.47 30.96 64.34 61.92 46.47"></polygon>
        </g>
      </g>
      <g>
        <path class="cls-1" fill="#FFFFFF" d="m82.05,29.21c-.17,0-.32-.06-.44-.18s-.18-.27-.18-.44V11.83c0-.19.06-.34.18-.46s.27-.18.44-.18h11.33c.19,0,.34.06.46.18s.18.27.18.46v1.7c0,.17-.06.32-.18.44-.12.12-.27.18-.46.18h-8.47v4.56h7.91c.19,0,.34.06.46.17.12.11.18.26.18.45v1.6c0,.19-.06.34-.18.45-.12.11-.27.17-.46.17h-7.91v4.71h8.68c.19,0,.34.06.46.18s.18.27.18.46v1.7c0,.17-.06.32-.18.44s-.27.18-.46.18h-11.54Z"></path>
        <path class="cls-1" fill="#FFFFFF" d="m97.68,29.21c-.17,0-.32-.06-.44-.18s-.18-.27-.18-.44V11.83c0-.19.06-.34.18-.46s.27-.18.44-.18h6.28c1.73,0,3.16.27,4.29.8,1.12.53,1.97,1.32,2.55,2.37.57,1.05.87,2.33.89,3.84.03.76.05,1.43.05,2.01s-.02,1.24-.05,1.98c-.03,1.6-.33,2.91-.88,3.95-.55,1.04-1.38,1.81-2.49,2.32-1.11.51-2.52.76-4.24.76h-6.41Zm2.96-2.96h3.32c.96,0,1.74-.14,2.34-.41.6-.27,1.04-.72,1.33-1.33s.43-1.41.45-2.41c.02-.51.03-.97.04-1.35,0-.39,0-.77,0-1.16s-.02-.83-.04-1.33c-.03-1.41-.39-2.45-1.06-3.12-.67-.67-1.73-1-3.19-1h-3.19v12.1Z"></path>
        <path class="cls-1" fill="#FFFFFF" d="m121.97,29.47c-1.49,0-2.79-.25-3.89-.76-1.1-.51-1.95-1.29-2.55-2.34-.6-1.06-.9-2.41-.9-4.06v-10.48c0-.19.06-.34.18-.46s.27-.18.44-.18h2.34c.19,0,.34.06.45.18.11.12.17.27.17.46v10.48c0,1.41.33,2.45,1,3.13.67.68,1.59,1.02,2.75,1.02s2.08-.34,2.74-1.02c.66-.68.99-1.72.99-3.13v-10.48c0-.19.06-.34.18-.46.12-.12.27-.18.46-.18h2.32c.19,0,.34.06.45.18s.17.27.17.46v10.48c0,1.65-.3,3-.89,4.06-.59,1.06-1.43,1.84-2.52,2.34-1.09.51-2.39.76-3.9.76Z"></path>
        <path class="cls-1" fill="#FFFFFF" d="m139.71,29.47c-1.6,0-2.95-.28-4.06-.84-1.11-.56-1.95-1.36-2.54-2.4-.58-1.04-.91-2.29-.98-3.75-.02-.7-.03-1.46-.03-2.27s0-1.58.03-2.32c.07-1.44.4-2.69.99-3.73.59-1.05,1.44-1.85,2.55-2.41,1.11-.56,2.45-.84,4.03-.84,1.17,0,2.21.15,3.14.46s1.72.73,2.37,1.27c.65.54,1.16,1.17,1.52,1.89.36.72.55,1.5.57,2.34.02.15-.03.28-.14.39s-.24.15-.4.15h-2.45c-.19,0-.34-.05-.46-.14-.12-.09-.21-.25-.26-.48-.28-1.13-.75-1.91-1.42-2.32-.67-.41-1.5-.62-2.5-.62-1.15,0-2.07.32-2.76.97-.69.64-1.06,1.7-1.11,3.18-.05,1.41-.05,2.85,0,4.33s.42,2.54,1.11,3.18c.69.64,1.61.97,2.76.97,1,0,1.83-.21,2.51-.63.68-.42,1.15-1.19,1.4-2.3.05-.24.14-.4.26-.49.12-.09.27-.13.46-.13h2.45c.16,0,.29.05.4.15s.16.23.14.39c-.02.84-.21,1.62-.57,2.34s-.87,1.35-1.52,1.89c-.65.54-1.44.97-2.37,1.27s-1.97.46-3.14.46Z"></path>
        <path class="cls-1" fill="#FFFFFF" d="m148.67,29.21c-.14,0-.26-.05-.37-.15-.11-.1-.17-.23-.17-.39,0-.07.02-.15.05-.23l6.21-16.61c.05-.17.15-.32.3-.45.15-.13.35-.19.61-.19h2.81c.26,0,.45.06.59.19s.24.28.31.45l6.21,16.61c.02.09.03.16.03.23,0,.15-.05.28-.15.39-.1.1-.22.15-.36.15h-2.24c-.24,0-.42-.06-.53-.17-.11-.11-.18-.22-.22-.32l-1.21-3.14h-7.65l-1.21,3.14c-.03.1-.11.21-.22.32-.11.11-.29.17-.53.17h-2.24Zm5.1-6.59h5.85l-2.94-7.96-2.91,7.96Z"></path>
        <path class="cls-1" fill="#FFFFFF" d="m172.7,29.21c-.17,0-.32-.06-.44-.18s-.18-.27-.18-.44V11.83c0-.19.06-.34.18-.46s.27-.18.44-.18h11.33c.19,0,.34.06.46.18s.18.27.18.46v1.7c0,.17-.06.32-.18.44-.12.12-.27.18-.46.18h-8.47v4.56h7.91c.19,0,.34.06.46.17.12.11.18.26.18.45v1.6c0,.19-.06.34-.18.45-.12.11-.27.17-.46.17h-7.91v4.71h8.68c.19,0,.34.06.46.18s.18.27.18.46v1.7c0,.17-.06.32-.18.44s-.27.18-.46.18h-11.54Z"></path>
        <path class="cls-1" fill="#FFFFFF" d="m188.33,29.21c-.17,0-.32-.06-.44-.18s-.18-.27-.18-.44V11.83c0-.19.06-.34.18-.46s.27-.18.44-.18h6.28c1.73,0,3.16.27,4.29.8,1.12.53,1.97,1.32,2.55,2.37.57,1.05.87,2.33.89,3.84.03.76.05,1.43.05,2.01s-.02,1.24-.05,1.98c-.03,1.6-.33,2.91-.88,3.95-.55,1.04-1.38,1.81-2.49,2.32-1.11.51-2.52.76-4.24.76h-6.41Zm2.96-2.96h3.32c.96,0,1.74-.14,2.34-.41.6-.27,1.04-.72,1.33-1.33s.43-1.41.45-2.41c.02-.51.03-.97.04-1.35,0-.39,0-.77,0-1.16s-.02-.83-.04-1.33c-.03-1.41-.39-2.45-1.06-3.12-.67-.67-1.73-1-3.19-1h-3.19v12.1Z"></path>
        <path class="cls-1" fill="#FFFFFF" d="m209.68,29.21c-.17,0-.32-.06-.44-.18-.12-.12-.18-.27-.18-.44v-14.24h-4.76c-.17,0-.32-.06-.44-.18-.12-.12-.18-.27-.18-.44v-1.91c0-.19.06-.34.18-.46s.27-.18.44-.18h13.13c.19,0,.34.06.46.18s.18.27.18.46v1.91c0,.17-.06.32-.18.44-.12.12-.27.18-.46.18h-4.74v14.24c0,.17-.06.32-.18.44-.12.12-.28.18-.46.18h-2.37Z"></path>
        <path class="cls-1" fill="#FFFFFF" d="m220.91,29.21c-.17,0-.32-.06-.44-.18s-.18-.27-.18-.44V11.83c0-.19.06-.34.18-.46s.27-.18.44-.18h11.33c.19,0,.34.06.46.18s.18.27.18.46v1.7c0,.17-.06.32-.18.44-.12.12-.27.18-.46.18h-8.47v4.56h7.91c.19,0,.34.06.46.17.12.11.18.26.18.45v1.6c0,.19-.06.34-.18.45-.12.11-.27.17-.46.17h-7.91v4.71h8.68c.19,0,.34.06.46.18s.18.27.18.46v1.7c0,.17-.06.32-.18.44s-.27.18-.46.18h-11.54Z"></path>
        <path class="cls-1" fill="#FFFFFF" d="m242.72,29.47c-1.6,0-2.95-.28-4.06-.84-1.11-.56-1.95-1.36-2.54-2.4-.58-1.04-.91-2.29-.98-3.75-.02-.7-.03-1.46-.03-2.27s0-1.58.03-2.32c.07-1.44.4-2.69.99-3.73.59-1.05,1.44-1.85,2.55-2.41,1.11-.56,2.45-.84,4.03-.84,1.17,0,2.21.15,3.14.46s1.72.73,2.37,1.27c.65.54,1.16,1.17,1.52,1.89.36.72.55,1.5.57,2.34.02.15-.03.28-.14.39s-.24.15-.4.15h-2.45c-.19,0-.34-.05-.46-.14-.12-.09-.21-.25-.26-.48-.28-1.13-.75-1.91-1.42-2.32-.67-.41-1.5-.62-2.5-.62-1.15,0-2.07.32-2.76.97-.69.64-1.06,1.7-1.11,3.18-.05,1.41-.05,2.85,0,4.33s.42,2.54,1.11,3.18c.69.64,1.61.97,2.76.97,1,0,1.83-.21,2.51-.63.68-.42,1.15-1.19,1.4-2.3.05-.24.14-.4.26-.49.12-.09.27-.13.46-.13h2.45c.16,0,.29.05.4.15s.16.23.14.39c-.02.84-.21,1.62-.57,2.34s-.87,1.35-1.52,1.89c-.65.54-1.44.97-2.37,1.27s-1.97.46-3.14.46Z"></path>
        <path class="cls-1" fill="#FFFFFF" d="m253.61,29.21c-.17,0-.32-.06-.44-.17-.12-.11-.18-.26-.18-.45V11.83c0-.19.06-.34.18-.46s.27-.18.44-.18h2.34c.19,0,.34.06.45.18.11.12.17.27.17.46v6.64h7.6v-6.64c0-.19.06-.34.18-.46s.27-.18.44-.18h2.32c.19,0,.34.06.46.18.12.12.18.27.18.46v16.76c0,.17-.06.32-.18.44-.12.12-.28.18-.46.18h-2.32c-.17,0-.32-.06-.44-.18s-.18-.27-.18-.44v-6.9h-7.6v6.9c0,.17-.06.32-.17.44-.11.12-.26.18-.45.18h-2.34Z"></path>
        <path class="cls-1" fill="#FFFFFF" d="m86.64,54.14c-1.26,0-2.34-.22-3.22-.66s-1.57-1.07-2.06-1.91c-.49-.83-.75-1.82-.79-2.98-.01-.59-.02-1.23-.02-1.91s0-1.32.02-1.93c.04-1.14.31-2.11.79-2.92.49-.81,1.18-1.44,2.08-1.88s1.97-.66,3.2-.66c1,0,1.88.13,2.64.4.75.27,1.38.61,1.88,1.03.5.42.88.87,1.13,1.35.25.48.39.93.4,1.34.01.12-.02.23-.1.31-.08.08-.19.12-.33.12h-2.12c-.14,0-.24-.03-.31-.08-.07-.05-.13-.14-.19-.25-.11-.29-.28-.57-.52-.86-.23-.28-.55-.52-.95-.71s-.91-.29-1.54-.29c-.93,0-1.68.25-2.24.74-.56.5-.86,1.31-.9,2.45-.04,1.19-.04,2.4,0,3.63.04,1.17.35,2,.92,2.51.57.51,1.32.76,2.26.76.62,0,1.17-.11,1.66-.33s.87-.56,1.15-1.03c.28-.47.42-1.06.42-1.79v-.64h-2.51c-.14,0-.25-.05-.35-.14-.1-.1-.14-.22-.14-.37v-1.09c0-.15.05-.27.14-.37s.21-.14.35-.14h4.92c.15,0,.27.05.36.14.09.1.13.22.13.37v2.16c0,1.15-.25,2.15-.75,2.99-.5.84-1.22,1.48-2.14,1.94-.93.45-2.02.68-3.29.68Z"></path>
        <path class="cls-1" fill="#FFFFFF" d="m95.39,53.93c-.14,0-.25-.05-.35-.14s-.14-.21-.14-.35v-9.7c0-.15.05-.28.14-.37.1-.1.21-.14.35-.14h1.67c.14,0,.26.05.36.14.1.1.15.22.15.37v.84c.32-.44.72-.78,1.23-1.01s1.08-.35,1.74-.35h.84c.15,0,.27.05.36.14.09.1.13.21.13.35v1.48c0,.14-.04.25-.13.35-.09.1-.21.14-.36.14h-1.61c-.66,0-1.17.18-1.53.55-.36.36-.55.88-.55,1.53v5.67c0,.14-.05.25-.14.35-.1.1-.22.14-.37.14h-1.79Z"></path>
        <path class="cls-1" fill="#FFFFFF" d="m107.77,54.14c-1.1,0-2.02-.19-2.77-.58-.75-.38-1.32-.93-1.71-1.63s-.62-1.52-.67-2.45c-.01-.25-.02-.55-.02-.91s0-.66.02-.91c.05-.95.29-1.77.69-2.46s.98-1.23,1.73-1.62c.75-.38,1.66-.58,2.73-.58s1.98.19,2.73.58c.75.38,1.33.92,1.73,1.62s.63,1.51.69,2.46c.01.25.02.55.02.91s0,.66-.02.91c-.06.93-.28,1.75-.67,2.45s-.96,1.24-1.71,1.63c-.75.38-1.67.58-2.77.58Zm0-2.04c.73,0,1.29-.23,1.69-.69s.62-1.14.66-2.03c.01-.21.02-.47.02-.8s0-.6-.02-.8c-.04-.89-.26-1.57-.66-2.03-.4-.46-.96-.69-1.69-.69s-1.29.23-1.69.69c-.4.46-.62,1.14-.66,2.03-.01.21-.02.47-.02.8s0,.6.02.8c.04.89.26,1.57.66,2.03.4.46.96.69,1.69.69Z"></path>
        <path class="cls-1" fill="#FFFFFF" d="m118.9,54.14c-.84,0-1.56-.19-2.17-.57s-1.08-.91-1.41-1.61c-.33-.69-.49-1.51-.49-2.46v-5.79c0-.14.05-.25.14-.35.1-.1.21-.14.35-.14h1.81c.15,0,.27.05.36.14.09.1.13.21.13.35v5.67c0,1.7.75,2.55,2.25,2.55.71,0,1.28-.23,1.7-.68s.63-1.08.63-1.88v-5.67c0-.14.05-.25.14-.35.1-.1.21-.14.35-.14h1.81c.14,0,.25.05.35.14.1.1.14.21.14.35v9.72c0,.14-.05.25-.14.35-.1.1-.21.14-.35.14h-1.67c-.15,0-.27-.05-.36-.14-.09-.1-.13-.21-.13-.35v-.84c-.37.48-.83.86-1.38,1.13-.55.27-1.24.41-2.06.41Z"></path>
        <path class="cls-1" fill="#FFFFFF" d="m127.92,57.85c-.14,0-.25-.05-.35-.14-.1-.1-.14-.21-.14-.35v-13.64c0-.14.05-.25.14-.35s.21-.14.35-.14h1.63c.15,0,.27.05.36.14.09.1.13.21.13.35v.82c.33-.44.76-.8,1.3-1.09.54-.29,1.2-.43,2-.43.73,0,1.36.12,1.9.35.54.23.98.57,1.34,1s.63.94.82,1.54.3,1.24.33,1.96c.01.23.02.47.02.72s0,.5-.02.74c-.01.69-.12,1.32-.31,1.91s-.47,1.09-.83,1.52c-.36.43-.81.77-1.35,1.02-.54.25-1.17.37-1.9.37s-1.37-.13-1.9-.4c-.52-.27-.95-.62-1.28-1.06v4.68c0,.14-.04.25-.13.35-.09.1-.21.14-.36.14h-1.75Zm4.66-5.91c.59,0,1.05-.13,1.38-.38s.57-.59.72-1c.15-.41.24-.87.27-1.36.01-.41.01-.82,0-1.24-.03-.49-.12-.95-.27-1.36s-.39-.75-.72-1-.79-.38-1.38-.38-1.02.13-1.37.39c-.35.26-.6.59-.76,1-.16.41-.25.82-.28,1.25-.01.25-.02.51-.02.78s0,.54.02.8c.01.41.11.81.29,1.18.18.38.44.69.78.94.34.25.79.37,1.34.37Z"></path>
      </g>
    </g>
  </g>
</svg>